<?xml version="1.0" encoding="UTF-8"?>
<svg width="40px" height="40px" viewBox="0 0 40 40" version="1.1" xmlns="http://www.w3.org/2000/svg" xmlns:xlink="http://www.w3.org/1999/xlink">
    <!-- Generator: Sketch 46.2 (44496) - http://www.bohemiancoding.com/sketch -->
    <title>person</title>
    <desc>Created with Sketch.</desc>
    <defs></defs>
    <g id="Page-1" stroke="none" stroke-width="1" fill="none" fill-rule="evenodd">
        <g id="person" fill-rule="nonzero" fill="#000000">
            <path d="M40,37.1509054 C40,38.7283702 38.5070423,40 36.6760563,40 L36.6760563,40 L3.36150235,40 C1.52112676,40 0.0281690141,38.7283702 0.0187793427,37.1509054 C0.0187793427,37.1509054 0.0187793427,37.1509054 0.0187793427,37.1428571 L0.0187793427,34.2857143 C0.0187793427,26.7686117 13.342723,22.8651911 13.342723,22.8651911 C13.342723,22.8651911 14.1126761,21.6981891 13.342723,20.0080483 C10.5446009,18.2374245 10.1971831,15.4688129 10.0093897,8.58752515 C10.5915493,1.69818913 16.2347418,0.0241448692 20.0093897,0.0241448692 C23.7840376,0.0241448692 29.42723,1.69014085 30.0093897,8.58752515 C29.8215962,15.4688129 29.4741784,18.2374245 26.6760563,20.0080483 C25.9061033,21.6901408 26.6760563,22.8651911 26.6760563,22.8651911 C26.6760563,22.8651911 40,26.7686117 40,34.2857143 L40,37.1509054 Z" id="Shape"></path>
        </g>
    </g>
</svg>